<svg width="475" height="105" viewBox="0 0 475 105" fill="none" xmlns="http://www.w3.org/2000/svg">
<mask id="path-6-outside-2_4197_9774" maskUnits="userSpaceOnUse" x="-0.1875" y="0" width="471" height="104" fill="black">
<rect fill="white" x="-0.1875" width="471" height="104"/>
<path d="M4.8125 53.1C4.8125 38.8353 4.8125 31.703 7.28326 26.1291C10.1805 19.5929 15.4054 14.368 21.9416 11.4708C27.5155 9 34.6478 9 48.9125 9H426.013C440.277 9 447.409 9 452.983 11.4708C459.52 14.368 464.744 19.5929 467.642 26.1291C470.112 31.703 470.112 38.8353 470.112 53.1C470.112 67.3647 470.112 74.497 467.642 80.0709C464.744 86.6071 459.52 91.832 452.983 94.7292C447.409 97.2 440.277 97.2 426.013 97.2H48.9125C34.6478 97.2 27.5155 97.2 21.9416 94.7292C15.4054 91.832 10.1805 86.6071 7.28326 80.0709C4.8125 74.497 4.8125 67.3647 4.8125 53.1Z"/>
</mask>
<path d="M48.9125 5.4C48.9125 7.8 48.9125 10.2 48.9125 12.6C66.5303 11.6071 84.1481 10.8197 101.766 10.2375C126.735 9.41251 151.704 9 176.674 9C244.674 9 312.675 18 380.675 18C395.788 18 410.9 16.501 426.013 14.7265C435.037 13.8593 444.324 11.7351 451.973 13.7501C458.199 15.6248 463.901 20.1896 467.106 26.3666C469.698 31.3992 469.915 37.4325 470.066 43.1312C470.118 46.4565 470.111 49.7752 470.112 53.1C469.871 62.1258 471.018 71.5122 467.642 80.0709C464.794 86.5475 459.46 91.8814 452.983 94.7292C444.425 98.1058 435.038 96.9589 426.013 97.2C397.112 97.2 368.211 97.2 339.311 97.2C244.111 97.2 148.911 90.45 53.7116 90.45C52.1119 90.45 50.5122 90.4553 48.9125 90.4656C40.0182 90.4007 30.1235 91.2336 24.4403 89.0921C19.2625 87.0653 14.7799 83.0464 12.1995 77.8917C9.2907 72.0076 9.57803 61.9739 9.12936 53.1C9.12936 53.1 9.12936 53.1 9.12936 53.1C8.93972 45.533 8.36129 37.6876 9.5613 31.1053C9.81272 29.8618 10.1548 28.6993 10.6209 27.6085C11.6245 25.2612 13.0046 23.0713 14.6949 21.1518C17.0904 18.4265 20.0821 16.2302 23.4004 14.7619C30.2362 11.9382 39.9739 12.7711 48.9125 12.6C48.9125 10.2 48.9125 7.8 48.9125 5.4C39.7994 5.71119 30.7643 4.25023 20.4827 8.1796C16.2168 10.0672 12.3694 12.8915 9.28991 16.395C7.1173 18.8628 5.30975 21.652 3.94566 24.6496C3.2228 26.2362 2.69663 27.8823 2.31491 29.4965C0.556918 37.9142 0.872181 45.4362 0.495638 53.1C0.529247 62.2778 -1.4773 71.0168 2.367 82.2502C5.48225 90.0486 11.6675 96.6976 19.4428 100.366C30.8771 104.978 39.7551 103.517 48.9125 103.934C50.5122 103.945 52.1119 103.95 53.7116 103.95C148.911 103.95 244.111 97.2 339.311 97.2C368.211 97.2 397.112 97.2 426.013 97.2C435.038 96.9589 444.425 98.1058 452.983 94.7292C459.46 91.8814 464.794 86.5475 467.642 80.0709C471.018 71.5122 469.871 62.1258 470.112 53.1C470.112 53.1 470.112 53.1 470.112 53.1C470.111 49.7752 470.118 46.4565 470.066 43.1312C469.896 37.397 470.202 31.5335 468.178 25.8915C465.687 19.1154 460.721 13.0124 453.994 9.19138C444.526 4.45327 435.04 4.62295 426.013 3.27352C410.9 1.49902 395.788 0 380.675 0C312.675 0 244.674 9 176.674 9C151.704 9 126.735 8.58749 101.766 7.76246C84.1481 7.18034 66.5303 6.39285 48.9125 5.4ZM48.9125 12.6V5.4V12.6Z" fill="#FFBD7A" mask="url(#path-6-outside-2_4197_9774)"/>
</svg>
